# xmcd
#
# Track frame offsets: 
#        150
#        15044
#        29615
#        42531
#        58854
#        71172
#        83322
#        94163
#        103039
#        116222
#        127355
#        142361
#        157258
#        169517
#        180198
#        187620
#        198059
#        214356
#        225778
#
# Disc length: 3220 seconds
#
# Revision: 0
# Processed by: cddbd v1.5.2PL0 Copyright (c) Steve Scherf et al.
# Submitted via: ExactAudioCopy v0.99pb5
#
DISCID=040c9213
DTITLE=Elvis Presley  - I Believe The Gospel Masters [Disc 3]
DYEAR=1900
DGENRE=
TTITLE0=I Was Born About Ten Thousand Years Ago
TTITLE1=Life
TTITLE2=Only Believe
TTITLE3=Amazing Grace
TTITLE4=Lead Me, Guide Me
TTITLE5=He Touched Me
TTITLE6=I've Got Confidence
TTITLE7=An Evening Prayer
TTITLE8=Seeing Is Believing
TTITLE9=A Thing Called Love
TTITLE10=Put Your Hand In The Hand
TTITLE11=Reach Out To Jesus
TTITLE12=He Is My Everything
TTITLE13=There Is No God But God
TTITLE14=Bosom Of Abraham
TTITLE15=I, John
TTITLE16=I Got A Feelin' In My Body
TTITLE17=Help Me
TTITLE18=If That Isn't Love
EXTD=
EXTT0=
EXTT1=
EXTT2=
EXTT3=
EXTT4=
EXTT5=
EXTT6=
EXTT7=
EXTT8=
EXTT9=
EXTT10=
EXTT11=
EXTT12=
EXTT13=
EXTT14=
EXTT15=
EXTT16=
EXTT17=
EXTT18=
PLAYORDER=
